<svg width="358" height="140" viewBox="0 0 358 140" fill="none" xmlns="http://www.w3.org/2000/svg">
<rect opacity="0.1" width="358" height="140" rx="10" fill="url(#paint0_linear_460_1056)"/>
<path d="M142.3 88.0127V98H140.652V89.9678L138.212 90.7949V89.4346L142.101 88.0127H142.3ZM147.188 93.3721L145.876 93.0508L146.416 88.0469H151.782V89.4414H147.783L147.509 91.8818C147.664 91.7907 147.879 91.7018 148.152 91.6152C148.425 91.5241 148.738 91.4785 149.088 91.4785C149.558 91.4785 149.977 91.556 150.346 91.7109C150.72 91.8613 151.037 92.0824 151.296 92.374C151.556 92.6611 151.754 93.012 151.891 93.4268C152.028 93.8369 152.096 94.2995 152.096 94.8145C152.096 95.2747 152.028 95.7054 151.891 96.1064C151.759 96.5075 151.559 96.8607 151.29 97.166C151.021 97.4714 150.681 97.7106 150.271 97.8838C149.865 98.0524 149.385 98.1367 148.829 98.1367C148.414 98.1367 148.015 98.0775 147.632 97.959C147.254 97.8359 146.915 97.6559 146.614 97.4189C146.313 97.1774 146.072 96.8812 145.889 96.5303C145.707 96.1748 145.602 95.7669 145.575 95.3066H147.188C147.229 95.6302 147.318 95.9059 147.455 96.1338C147.596 96.3571 147.783 96.528 148.015 96.6465C148.248 96.765 148.517 96.8242 148.822 96.8242C149.1 96.8242 149.339 96.7764 149.54 96.6807C149.74 96.5804 149.907 96.4391 150.039 96.2568C150.175 96.07 150.276 95.8512 150.339 95.6006C150.408 95.3499 150.442 95.0719 150.442 94.7666C150.442 94.4749 150.403 94.2083 150.326 93.9668C150.253 93.7253 150.141 93.5156 149.991 93.3379C149.845 93.1602 149.66 93.0234 149.437 92.9277C149.214 92.8275 148.956 92.7773 148.665 92.7773C148.273 92.7773 147.972 92.8343 147.762 92.9482C147.557 93.0622 147.366 93.2035 147.188 93.3721ZM156.527 93.0918V94.4043H152.911V93.0918H156.527ZM164.245 96.6875V98H157.573V96.8721L160.814 93.3379C161.169 92.9368 161.449 92.5905 161.654 92.2988C161.86 92.0072 162.003 91.7451 162.085 91.5127C162.172 91.2757 162.215 91.0456 162.215 90.8223C162.215 90.5078 162.156 90.2321 162.037 89.9951C161.923 89.7536 161.755 89.5645 161.531 89.4277C161.308 89.2865 161.037 89.2158 160.718 89.2158C160.349 89.2158 160.039 89.2956 159.788 89.4551C159.538 89.6146 159.349 89.8356 159.221 90.1182C159.093 90.3962 159.029 90.7152 159.029 91.0752H157.382C157.382 90.4964 157.514 89.9678 157.779 89.4893C158.043 89.0062 158.426 88.6234 158.927 88.3408C159.428 88.0537 160.032 87.9102 160.738 87.9102C161.404 87.9102 161.969 88.0218 162.434 88.2451C162.899 88.4684 163.252 88.7852 163.493 89.1953C163.739 89.6055 163.863 90.0908 163.863 90.6514C163.863 90.9613 163.812 91.2689 163.712 91.5742C163.612 91.8796 163.468 92.1849 163.281 92.4902C163.099 92.791 162.883 93.0941 162.632 93.3994C162.381 93.7002 162.106 94.0055 161.805 94.3154L159.652 96.6875H164.245ZM171.718 92.1895V93.8164C171.718 94.5957 171.64 95.2611 171.485 95.8125C171.335 96.3594 171.116 96.8037 170.829 97.1455C170.542 97.4873 170.198 97.738 169.797 97.8975C169.4 98.057 168.956 98.1367 168.464 98.1367C168.072 98.1367 167.707 98.0866 167.37 97.9863C167.037 97.8861 166.737 97.7288 166.468 97.5146C166.199 97.3005 165.969 97.0247 165.777 96.6875C165.59 96.3457 165.445 95.9378 165.34 95.4639C165.24 94.9899 165.189 94.4408 165.189 93.8164V92.1895C165.189 91.4056 165.267 90.7448 165.422 90.207C165.577 89.6647 165.798 89.2249 166.085 88.8877C166.372 88.5459 166.714 88.2975 167.11 88.1426C167.511 87.9876 167.958 87.9102 168.45 87.9102C168.847 87.9102 169.211 87.9603 169.544 88.0605C169.881 88.1562 170.182 88.3089 170.446 88.5186C170.715 88.7282 170.943 89.0016 171.13 89.3389C171.321 89.6715 171.467 90.0749 171.567 90.5488C171.668 91.0182 171.718 91.5651 171.718 92.1895ZM170.07 94.0488V91.9434C170.07 91.5469 170.048 91.1982 170.002 90.8975C169.956 90.5921 169.888 90.3346 169.797 90.125C169.71 89.9108 169.601 89.7376 169.469 89.6055C169.337 89.4688 169.186 89.3708 169.018 89.3115C168.849 89.2477 168.66 89.2158 168.45 89.2158C168.195 89.2158 167.967 89.266 167.767 89.3662C167.566 89.4619 167.397 89.6169 167.261 89.8311C167.124 90.0452 167.019 90.3278 166.946 90.6787C166.878 91.0251 166.844 91.4466 166.844 91.9434V94.0488C166.844 94.4499 166.867 94.8031 166.912 95.1084C166.958 95.4137 167.026 95.6758 167.117 95.8945C167.208 96.1087 167.318 96.2865 167.445 96.4277C167.577 96.5645 167.728 96.6647 167.896 96.7285C168.07 96.7923 168.259 96.8242 168.464 96.8242C168.724 96.8242 168.954 96.7741 169.154 96.6738C169.355 96.5736 169.523 96.4141 169.66 96.1953C169.797 95.972 169.899 95.6826 169.968 95.3271C170.036 94.9717 170.07 94.5456 170.07 94.0488ZM177.817 92.1074V98H176.17V90.6035H177.721L177.817 92.1074ZM177.55 94.0283L176.99 94.0215C176.99 93.5111 177.054 93.0394 177.181 92.6064C177.309 92.1735 177.496 91.7975 177.742 91.4785C177.988 91.1549 178.293 90.9066 178.658 90.7334C179.027 90.5557 179.453 90.4668 179.936 90.4668C180.273 90.4668 180.581 90.5169 180.859 90.6172C181.142 90.7129 181.385 90.8656 181.59 91.0752C181.8 91.2848 181.96 91.5537 182.069 91.8818C182.183 92.21 182.24 92.6064 182.24 93.0713V98H180.592V93.2148C180.592 92.8548 180.538 92.5723 180.428 92.3672C180.324 92.1621 180.171 92.0163 179.97 91.9297C179.774 91.8385 179.54 91.793 179.266 91.793C178.956 91.793 178.692 91.8522 178.473 91.9707C178.259 92.0892 178.084 92.251 177.947 92.4561C177.81 92.6611 177.71 92.8981 177.646 93.167C177.582 93.4359 177.55 93.723 177.55 94.0283ZM182.137 93.5908L181.365 93.7617C181.365 93.3151 181.426 92.8936 181.549 92.4971C181.677 92.096 181.862 91.7451 182.103 91.4443C182.349 91.139 182.652 90.8997 183.012 90.7266C183.372 90.5534 183.785 90.4668 184.25 90.4668C184.628 90.4668 184.965 90.5192 185.261 90.624C185.562 90.7243 185.817 90.8838 186.027 91.1025C186.237 91.3213 186.396 91.6061 186.505 91.957C186.615 92.3034 186.67 92.7227 186.67 93.2148V98H185.015V93.208C185.015 92.8343 184.961 92.5449 184.851 92.3398C184.746 92.1348 184.596 91.9935 184.4 91.916C184.204 91.834 183.969 91.793 183.696 91.793C183.441 91.793 183.215 91.8408 183.019 91.9365C182.828 92.0277 182.666 92.1576 182.534 92.3262C182.402 92.4902 182.301 92.6794 182.233 92.8936C182.169 93.1077 182.137 93.3402 182.137 93.5908ZM189.829 90.6035V98H188.174V90.6035H189.829ZM188.065 88.6621C188.065 88.4115 188.147 88.2041 188.311 88.04C188.48 87.8714 188.712 87.7871 189.008 87.7871C189.3 87.7871 189.53 87.8714 189.699 88.04C189.867 88.2041 189.952 88.4115 189.952 88.6621C189.952 88.9082 189.867 89.1133 189.699 89.2773C189.53 89.4414 189.3 89.5234 189.008 89.5234C188.712 89.5234 188.48 89.4414 188.311 89.2773C188.147 89.1133 188.065 88.9082 188.065 88.6621ZM192.967 92.1826V98H191.32V90.6035H192.871L192.967 92.1826ZM192.673 94.0283L192.14 94.0215C192.144 93.4974 192.217 93.0166 192.359 92.5791C192.504 92.1416 192.705 91.7656 192.96 91.4512C193.22 91.1367 193.53 90.8952 193.89 90.7266C194.25 90.5534 194.651 90.4668 195.093 90.4668C195.448 90.4668 195.77 90.5169 196.057 90.6172C196.349 90.7129 196.597 90.8701 196.802 91.0889C197.012 91.3076 197.171 91.5924 197.28 91.9434C197.39 92.2897 197.445 92.7158 197.445 93.2217V98H195.79V93.2148C195.79 92.8594 195.738 92.5791 195.633 92.374C195.533 92.1644 195.385 92.0163 195.189 91.9297C194.997 91.8385 194.758 91.793 194.471 91.793C194.188 91.793 193.935 91.8522 193.712 91.9707C193.489 92.0892 193.3 92.251 193.145 92.4561C192.994 92.6611 192.878 92.8981 192.796 93.167C192.714 93.4359 192.673 93.723 192.673 94.0283ZM203.776 87.5V98H202.122V87.5H203.776ZM208.542 98.1367C207.995 98.1367 207.5 98.0479 207.058 97.8701C206.621 97.6878 206.247 97.4349 205.937 97.1113C205.632 96.7878 205.397 96.4072 205.233 95.9697C205.069 95.5322 204.987 95.0605 204.987 94.5547V94.2812C204.987 93.7025 205.071 93.1784 205.24 92.709C205.408 92.2396 205.643 91.8385 205.944 91.5059C206.245 91.1686 206.6 90.9111 207.01 90.7334C207.421 90.5557 207.865 90.4668 208.343 90.4668C208.872 90.4668 209.335 90.5557 209.731 90.7334C210.128 90.9111 210.456 91.1618 210.715 91.4854C210.98 91.8044 211.176 92.1849 211.303 92.627C211.435 93.069 211.502 93.5566 211.502 94.0898V94.7939H205.787V93.6113H209.875V93.4814C209.865 93.1852 209.806 92.9072 209.697 92.6475C209.592 92.3877 209.43 92.1781 209.212 92.0186C208.993 91.859 208.701 91.7793 208.337 91.7793C208.063 91.7793 207.819 91.8385 207.605 91.957C207.395 92.071 207.22 92.2373 207.079 92.4561C206.937 92.6748 206.828 92.9391 206.751 93.249C206.678 93.5544 206.641 93.8984 206.641 94.2812V94.5547C206.641 94.8783 206.684 95.179 206.771 95.457C206.862 95.7305 206.994 95.9697 207.168 96.1748C207.341 96.3799 207.55 96.5417 207.796 96.6602C208.043 96.7741 208.323 96.8311 208.637 96.8311C209.034 96.8311 209.387 96.7513 209.697 96.5918C210.007 96.4323 210.276 96.2067 210.504 95.915L211.372 96.7559C211.212 96.9883 211.005 97.2116 210.75 97.4258C210.494 97.6354 210.182 97.8063 209.813 97.9385C209.448 98.0706 209.025 98.1367 208.542 98.1367ZM214.715 98H213.068V89.8926C213.068 89.3411 213.17 88.8786 213.375 88.5049C213.585 88.1266 213.884 87.8418 214.271 87.6504C214.658 87.4544 215.116 87.3564 215.645 87.3564C215.809 87.3564 215.971 87.3678 216.13 87.3906C216.29 87.4089 216.445 87.4385 216.595 87.4795L216.554 88.751C216.463 88.7282 216.363 88.7122 216.253 88.7031C216.149 88.694 216.035 88.6895 215.912 88.6895C215.661 88.6895 215.444 88.7373 215.262 88.833C215.084 88.9242 214.948 89.0586 214.852 89.2363C214.761 89.4141 214.715 89.6328 214.715 89.8926V98ZM216.24 90.6035V91.8066H211.933V90.6035H216.24ZM220.527 90.6035V91.8066H216.357V90.6035H220.527ZM217.56 88.792H219.207V95.9561C219.207 96.1839 219.239 96.3594 219.303 96.4824C219.371 96.6009 219.465 96.6807 219.583 96.7217C219.702 96.7627 219.841 96.7832 220 96.7832C220.114 96.7832 220.224 96.7764 220.328 96.7627C220.433 96.749 220.517 96.7354 220.581 96.7217L220.588 97.9795C220.451 98.0205 220.292 98.057 220.11 98.0889C219.932 98.1208 219.727 98.1367 219.494 98.1367C219.116 98.1367 218.781 98.0706 218.489 97.9385C218.198 97.8018 217.97 97.5807 217.806 97.2754C217.642 96.9701 217.56 96.5645 217.56 96.0586V88.792Z" fill="#414141"/>
<g clip-path="url(#clip0_460_1056)">
<path d="M207.162 55.1369L210.033 55.5792C211.005 54.4194 211.675 53.0432 211.984 51.5703C209.885 53.2642 206.692 52.364 204.147 53.2888C203.355 53.5832 202.641 54.0495 202.057 54.653C201.473 55.2565 201.034 55.9819 200.773 56.7753L199.37 58.2632C200.64 58.7588 202.004 58.9772 203.368 58.9031C204.732 58.8291 206.063 58.4645 207.27 57.8345C207.944 57.4744 208.569 57.0322 209.131 56.5181C208.126 55.8946 207.162 55.1369 207.162 55.1369Z" fill="#F2F2F2"/>
<path d="M206.143 50.6106L208.912 49.7444C209.258 48.2791 209.235 46.7529 208.845 45.2983C207.733 47.7373 204.468 48.335 202.608 50.2818C202.033 50.8933 201.604 51.6246 201.354 52.4216C201.105 53.2185 201.04 54.0606 201.166 54.8854L200.583 56.834C201.944 56.7193 203.264 56.3151 204.451 55.6493C205.638 54.9834 206.665 54.0718 207.461 52.9772C207.901 52.3588 208.26 51.6882 208.53 50.9813C207.349 50.8648 206.143 50.6106 206.143 50.6106Z" fill="#F2F2F2"/>
<path d="M212 59.1643C212 59.1789 211.997 59.1934 211.992 59.2069C211.986 59.2204 211.978 59.2327 211.967 59.243C211.957 59.2533 211.944 59.2615 211.93 59.2671C211.917 59.2726 211.902 59.2755 211.887 59.2754H148.113C148.083 59.2754 148.054 59.2637 148.033 59.2429C148.012 59.2221 148 59.1938 148 59.1643C148 59.1349 148.012 59.1066 148.033 59.0858C148.054 59.0649 148.083 59.0532 148.113 59.0532H211.887C211.902 59.0532 211.917 59.056 211.93 59.0616C211.944 59.0672 211.957 59.0753 211.967 59.0857C211.978 59.096 211.986 59.1083 211.992 59.1218C211.997 59.1353 212 59.1497 212 59.1643Z" fill="#CCCCCC"/>
<path d="M174.427 54.428C185.674 54.428 194.792 45.4411 194.792 34.3551C194.792 23.2692 185.674 14.2822 174.427 14.2822C163.18 14.2822 154.062 23.2692 154.062 34.3551C154.062 45.4411 163.18 54.428 174.427 54.428Z" fill="#A7A7A7"/>
<path d="M191.95 34.355C191.952 37.0501 191.313 39.7081 190.085 42.116C188.857 44.5238 187.073 46.6145 184.877 48.2202C184.73 48.3286 184.581 48.434 184.43 48.5367C181.494 50.5487 178.003 51.627 174.427 51.627C170.85 51.627 167.36 50.5487 164.423 48.5367C164.273 48.434 164.123 48.3286 163.976 48.2202C161.782 46.6131 159.999 44.5221 158.771 42.1146C157.543 39.7071 156.903 37.0497 156.903 34.355C156.903 31.6603 157.543 29.003 158.771 26.5954C159.999 24.1879 161.782 22.097 163.976 20.4898C164.123 20.3815 164.273 20.276 164.423 20.1733C167.36 18.1614 170.85 17.083 174.427 17.083C178.003 17.083 181.494 18.1614 184.43 20.1733C184.581 20.276 184.73 20.3815 184.877 20.4898C187.073 22.0956 188.857 24.1862 190.085 26.5941C191.313 29.0019 191.952 31.6599 191.95 34.355Z" fill="white"/>
<path d="M174.427 50.1331C183.268 50.1331 190.435 43.069 190.435 34.3549C190.435 25.6408 183.268 18.5767 174.427 18.5767C165.586 18.5767 158.419 25.6408 158.419 34.3549C158.419 43.069 165.586 50.1331 174.427 50.1331Z" fill="#FFE031"/>
<path opacity="0.2" d="M174.469 18.6211C174.226 18.6211 173.985 18.6273 173.745 18.6379C177.791 18.9883 181.55 20.8415 184.261 23.822C186.973 26.8026 188.433 30.6875 188.347 34.6899C188.261 38.6922 186.635 42.5126 183.797 45.377C180.96 48.2414 177.124 49.9357 173.067 50.1166C173.529 50.1562 173.996 50.1775 174.469 50.1775C178.714 50.1775 182.786 48.5152 185.788 45.5562C188.79 42.5972 190.476 38.584 190.476 34.3993C190.476 30.2147 188.79 26.2014 185.788 23.2424C182.786 20.2834 178.714 18.6211 174.469 18.6211V18.6211Z" fill="black"/>
<path d="M174.474 17.4565C174.336 17.4568 174.204 17.511 174.106 17.6072C174.008 17.7035 173.953 17.8339 173.953 17.97V20.2107C173.953 20.3469 174.008 20.4775 174.106 20.5738C174.203 20.6701 174.336 20.7242 174.474 20.7242C174.612 20.7242 174.745 20.6701 174.842 20.5738C174.94 20.4775 174.995 20.3469 174.995 20.2107V17.97C174.995 17.8339 174.94 17.7035 174.842 17.6072C174.745 17.511 174.612 17.4568 174.474 17.4565Z" fill="white"/>
<path d="M184.877 20.4899C184.731 20.3816 184.581 20.2761 184.43 20.1735C184.34 20.1676 184.25 20.1852 184.168 20.2243C184.087 20.2634 184.017 20.3228 183.966 20.3966L182.687 22.248C182.609 22.3605 182.58 22.4989 182.605 22.6326C182.631 22.7664 182.71 22.8846 182.824 22.9612C182.938 23.0379 183.078 23.0667 183.214 23.0413C183.35 23.0159 183.47 22.9384 183.548 22.8259L184.827 20.9745C184.876 20.9043 184.906 20.8231 184.915 20.7385C184.924 20.6539 184.911 20.5684 184.877 20.4899Z" fill="white"/>
<path d="M190.691 28.9316C190.665 28.8692 190.628 28.8124 190.58 28.7644C190.532 28.7165 190.474 28.6783 190.411 28.6521C190.348 28.6259 190.281 28.6122 190.212 28.6118C190.144 28.6114 190.076 28.6243 190.013 28.6497L187.906 29.4927C187.779 29.5441 187.677 29.6433 187.623 29.7687C187.569 29.8941 187.568 30.0354 187.62 30.1615C187.672 30.2876 187.773 30.3882 187.9 30.4412C188.027 30.4941 188.171 30.4952 188.299 30.4441L190.405 29.601C190.533 29.5494 190.635 29.45 190.688 29.3246C190.742 29.1991 190.743 29.0578 190.691 28.9316Z" fill="white"/>
<path d="M166.167 22.248L164.888 20.3966C164.837 20.3228 164.767 20.2634 164.686 20.2243C164.604 20.1852 164.514 20.1676 164.424 20.1735C164.273 20.2761 164.123 20.3816 163.977 20.4899C163.943 20.5684 163.93 20.6539 163.939 20.7385C163.948 20.8231 163.978 20.9043 164.027 20.9745L165.306 22.8259C165.384 22.9384 165.504 23.0159 165.64 23.0413C165.776 23.0667 165.916 23.0379 166.03 22.9612C166.144 22.8846 166.223 22.7664 166.249 22.6326C166.274 22.4989 166.245 22.3605 166.167 22.248Z" fill="white"/>
<path d="M160.947 29.4926L158.84 28.6495C158.712 28.5983 158.569 28.5993 158.442 28.6523C158.315 28.7052 158.214 28.8059 158.162 28.932C158.11 29.0581 158.111 29.1995 158.165 29.3249C158.218 29.4504 158.32 29.5496 158.448 29.6009L160.555 30.444C160.683 30.4951 160.826 30.494 160.953 30.441C161.081 30.388 161.181 30.2874 161.233 30.1614C161.285 30.0353 161.284 29.894 161.23 29.7686C161.177 29.6432 161.075 29.5439 160.947 29.4926V29.4926Z" fill="white"/>
<path d="M174.474 47.9858C174.336 47.9861 174.204 48.0403 174.106 48.1365C174.008 48.2327 173.953 48.3632 173.953 48.4993V50.74C173.953 50.8762 174.008 51.0068 174.106 51.1031C174.203 51.1994 174.336 51.2535 174.474 51.2535C174.612 51.2535 174.745 51.1994 174.842 51.1031C174.94 51.0068 174.995 50.8762 174.995 50.74V48.4993C174.995 48.3632 174.94 48.2327 174.842 48.1365C174.745 48.0403 174.612 47.9861 174.474 47.9858Z" fill="white"/>
<path d="M184.827 47.736L183.548 45.8846C183.509 45.8289 183.46 45.7811 183.403 45.7442C183.345 45.7072 183.281 45.6817 183.214 45.6692C183.147 45.6566 183.078 45.6572 183.011 45.6709C182.944 45.6847 182.88 45.7113 182.824 45.7492C182.767 45.7871 182.719 45.8357 182.681 45.8921C182.644 45.9485 182.618 46.0116 182.605 46.0778C182.593 46.144 182.593 46.2121 182.607 46.2781C182.621 46.3441 182.648 46.4068 182.687 46.4625L183.966 48.3139C184.017 48.3876 184.087 48.447 184.168 48.4861C184.25 48.5253 184.34 48.5428 184.43 48.537C184.581 48.4343 184.731 48.3288 184.877 48.2205C184.911 48.142 184.924 48.0566 184.915 47.9719C184.906 47.8873 184.876 47.8062 184.827 47.736Z" fill="white"/>
<path d="M190.406 39.1088L188.299 38.2658C188.171 38.2145 188.028 38.2155 187.9 38.2685C187.773 38.3214 187.672 38.4221 187.62 38.5482C187.568 38.6743 187.569 38.8157 187.623 38.9411C187.677 39.0666 187.779 39.1658 187.907 39.2171L190.013 40.0602C190.141 40.1113 190.285 40.1102 190.412 40.0572C190.539 40.0042 190.64 39.9036 190.692 39.7776C190.744 39.6515 190.743 39.5102 190.689 39.3848C190.635 39.2594 190.533 39.1601 190.406 39.1088V39.1088Z" fill="white"/>
<path d="M166.03 45.7492C165.916 45.6725 165.776 45.6438 165.64 45.6692C165.504 45.6946 165.384 45.772 165.306 45.8845L164.027 47.7359C163.978 47.8061 163.948 47.8873 163.939 47.9719C163.93 48.0565 163.943 48.142 163.977 48.2204C164.123 48.3287 164.273 48.4343 164.424 48.5369C164.514 48.5428 164.604 48.5252 164.686 48.4861C164.767 48.447 164.837 48.3876 164.888 48.3138L166.167 46.4624C166.206 46.4067 166.233 46.3441 166.247 46.2781C166.261 46.2121 166.261 46.144 166.249 46.0778C166.236 46.0115 166.21 45.9484 166.173 45.892C166.135 45.8356 166.087 45.7871 166.03 45.7492Z" fill="white"/>
<path d="M161.233 38.5478C161.207 38.4854 161.17 38.4286 161.122 38.3806C161.074 38.3327 161.016 38.2945 160.953 38.2683C160.89 38.2422 160.823 38.2285 160.754 38.228C160.686 38.2276 160.618 38.2405 160.555 38.2659L158.448 39.1089C158.321 39.1603 158.219 39.2596 158.165 39.385C158.111 39.5104 158.11 39.6516 158.162 39.7777C158.214 39.9038 158.315 40.0044 158.442 40.0574C158.569 40.1104 158.713 40.1114 158.841 40.0603L160.947 39.2172C161.075 39.1656 161.177 39.0662 161.23 38.9408C161.284 38.8153 161.285 38.674 161.233 38.5478Z" fill="white"/>
<path d="M175.15 34.1005C175.199 34.3812 175.132 34.6692 174.965 34.9014C174.798 35.1335 174.544 35.2909 174.259 35.339L165.015 36.8889C164.874 36.9126 164.729 36.9086 164.59 36.8772C164.45 36.8459 164.318 36.7878 164.202 36.7062C164.085 36.6246 163.986 36.5212 163.91 36.4018C163.834 36.2825 163.782 36.1495 163.758 36.0105C163.734 35.8715 163.738 35.7292 163.77 35.5917C163.802 35.4543 163.861 35.3243 163.943 35.2093C164.026 35.0943 164.131 34.9965 164.252 34.9215C164.373 34.8464 164.508 34.7956 164.649 34.772L173.894 33.2221C174.179 33.1746 174.471 33.2405 174.706 33.4052C174.942 33.5699 175.102 33.8199 175.15 34.1005Z" fill="#414141"/>
<path d="M184.88 44.1954C184.747 44.3271 184.567 44.4014 184.378 44.4021C184.19 44.4029 184.009 44.3299 183.875 44.1993L173.923 34.4673C173.79 34.3365 173.715 34.1588 173.714 33.9732C173.713 33.7876 173.787 33.6093 173.92 33.4776C174.053 33.3458 174.233 33.2713 174.421 33.2705C174.609 33.2697 174.79 33.3426 174.924 33.4732L184.876 43.2052C185.009 43.3361 185.085 43.5139 185.086 43.6995C185.086 43.8851 185.012 44.0635 184.88 44.1954Z" fill="#414141"/>
<path d="M174.427 35.5685C175.107 35.5685 175.658 35.0251 175.658 34.3548C175.658 33.6845 175.107 33.1411 174.427 33.1411C173.747 33.1411 173.195 33.6845 173.195 34.3548C173.195 35.0251 173.747 35.5685 174.427 35.5685Z" fill="#A7A7A7"/>
<path d="M165.945 13.3092C164.055 16.2382 161.171 18.1821 157.614 19.459C157.544 19.5109 157.464 19.5487 157.379 19.5701C157.294 19.5915 157.206 19.5962 157.119 19.5839C157.032 19.5716 156.948 19.5426 156.873 19.4984C156.797 19.4543 156.731 19.3959 156.678 19.3266C154.747 16.7841 155.183 13.1504 157.732 11.2077C158.349 10.7388 159.054 10.3953 159.806 10.1971C160.558 9.99887 161.343 9.94992 162.114 10.0531C162.886 10.1562 163.629 10.4094 164.301 10.7979C164.972 11.1864 165.559 11.7026 166.026 12.3164L166.079 12.3867C166.132 12.4559 166.17 12.5348 166.192 12.6186C166.214 12.7025 166.219 12.7897 166.206 12.8754C166.194 12.9611 166.164 13.0435 166.119 13.1179C166.075 13.1923 166.015 13.2574 165.945 13.3092Z" fill="#A7A7A7"/>
<path d="M182.828 12.3164C183.295 11.7026 183.881 11.1864 184.553 10.7979C185.224 10.4094 185.968 10.1562 186.739 10.0531C187.511 9.94992 188.295 9.99887 189.048 10.1971C189.8 10.3953 190.505 10.7388 191.121 11.2077C193.671 13.1504 194.107 16.7841 192.175 19.3266C192.122 19.3959 192.056 19.4543 191.981 19.4984C191.905 19.5426 191.822 19.5716 191.735 19.5839C191.648 19.5962 191.559 19.5915 191.474 19.5701C191.389 19.5487 191.309 19.5109 191.239 19.459C187.937 18.2131 185.23 16.057 182.908 13.3092C182.766 13.2045 182.673 13.0484 182.647 12.8754C182.622 12.7024 182.668 12.5266 182.774 12.3867L182.828 12.3164Z" fill="#A7A7A7"/>
<path d="M181.999 51.7452C181.879 51.8119 181.79 51.9229 181.753 52.0539C181.715 52.1849 181.732 52.3252 181.799 52.4441L184.806 57.7399C184.873 57.8587 184.986 57.9462 185.119 57.9832C185.252 58.0202 185.394 58.0036 185.514 57.9371C185.635 57.8706 185.724 57.7596 185.761 57.6286C185.799 57.4976 185.782 57.3572 185.715 57.2383L182.708 51.9426C182.641 51.8239 182.528 51.7365 182.395 51.6995C182.262 51.6625 182.12 51.679 181.999 51.7452Z" fill="#A7A7A7"/>
<path d="M166.146 51.943L163.139 57.2388C163.072 57.3576 163.055 57.498 163.092 57.629C163.13 57.7601 163.219 57.871 163.339 57.9375C163.46 58.004 163.602 58.0206 163.735 57.9836C163.868 57.9466 163.981 57.8591 164.048 57.7403L167.055 52.4445C167.088 52.3857 167.11 52.3209 167.118 52.2539C167.126 52.187 167.12 52.1191 167.102 52.0542C167.083 51.9893 167.052 51.9286 167.009 51.8757C166.967 51.8227 166.914 51.7785 166.855 51.7456C166.795 51.7126 166.729 51.6916 166.661 51.6837C166.593 51.6758 166.525 51.6812 166.459 51.6995C166.393 51.7179 166.331 51.7488 166.278 51.7906C166.224 51.8324 166.179 51.8842 166.146 51.943H166.146Z" fill="#A7A7A7"/>
<path d="M185.414 59.0962C186.304 59.0962 187.025 58.3856 187.025 57.509C187.025 56.6325 186.304 55.9219 185.414 55.9219C184.525 55.9219 183.804 56.6325 183.804 57.509C183.804 58.3856 184.525 59.0962 185.414 59.0962Z" fill="#A7A7A7"/>
<path d="M186.551 18.4834C187.44 18.4834 188.161 17.7728 188.161 16.8962C188.161 16.0197 187.44 15.3091 186.551 15.3091C185.662 15.3091 184.941 16.0197 184.941 16.8962C184.941 17.7728 185.662 18.4834 186.551 18.4834Z" fill="#A7A7A7"/>
<path d="M174.332 14.749C175.221 14.749 175.942 14.0384 175.942 13.1619C175.942 12.2853 175.221 11.5747 174.332 11.5747C173.443 11.5747 172.722 12.2853 172.722 13.1619C172.722 14.0384 173.443 14.749 174.332 14.749Z" fill="#A7A7A7"/>
<path d="M162.682 18.2969C163.571 18.2969 164.292 17.5863 164.292 16.7097C164.292 15.8332 163.571 15.1226 162.682 15.1226C161.792 15.1226 161.071 15.8332 161.071 16.7097C161.071 17.5863 161.792 18.2969 162.682 18.2969Z" fill="#A7A7A7"/>
<path d="M163.724 59.0962C164.613 59.0962 165.334 58.3856 165.334 57.509C165.334 56.6325 164.613 55.9219 163.724 55.9219C162.834 55.9219 162.113 56.6325 162.113 57.509C162.113 58.3856 162.834 59.0962 163.724 59.0962Z" fill="#A7A7A7"/>
<path d="M184.151 43.3029C184.215 43.4008 184.299 43.4839 184.399 43.5462C184.498 43.6085 184.611 43.6485 184.728 43.6634C184.845 43.6784 184.963 43.6678 185.076 43.6326C185.188 43.5973 185.291 43.5382 185.378 43.4594L187.905 44.7939L187.769 43.3317L185.391 42.2886C185.247 42.1539 185.058 42.0758 184.859 42.0693C184.661 42.0628 184.467 42.1282 184.314 42.2532C184.161 42.3782 184.06 42.5541 184.03 42.7476C184 42.9411 184.043 43.1386 184.151 43.3029H184.151Z" fill="#FFB7B7"/>
<path d="M185.993 43.8135L186.983 42.4663L191.753 44.6889L197.689 43.5912C197.982 43.5369 198.284 43.547 198.573 43.6207C198.862 43.6944 199.131 43.8299 199.361 44.0176C199.591 44.2052 199.776 44.4405 199.903 44.7067C200.031 44.9728 200.097 45.2634 200.098 45.5576C200.098 46.0891 199.885 46.599 199.504 46.9755C199.123 47.352 198.607 47.5643 198.068 47.5659L191.265 47.5783L185.993 43.8135Z" fill="#414141"/>
<path d="M184.467 67.0815L183.465 66.6093L184.842 62.4819L186.32 63.179L184.467 67.0815Z" fill="#FFB7B7"/>
<path d="M191.184 66.4161C191.111 66.4611 191.038 66.5053 190.965 66.5496C190.818 66.6381 190.67 66.7251 190.522 66.8107C190.448 66.8535 190.373 66.8963 190.299 66.9384V66.9405L190.294 66.9412L190.293 66.942L190.179 66.9695L190.017 66.546L189.942 66.3509L189.836 66.0745L189.641 65.569L188.619 62.9071L190.209 62.5205L190.268 62.7606H190.269L190.299 62.8795L190.854 65.1004L190.968 65.5545L190.971 65.5683L191.04 65.8395L191.099 66.0745L191.164 66.3371L191.184 66.4161Z" fill="#FFB7B7"/>
<path d="M200.67 57.0685C200.569 57.2281 200.466 57.3869 200.362 57.5443C200.17 57.8373 199.972 58.126 199.769 58.4103C199.769 58.4111 199.768 58.4111 199.767 58.4118C199.649 58.52 199.518 58.6142 199.377 58.6925C199.371 58.6968 199.365 58.6997 199.359 58.7034C199.255 58.7598 199.145 58.8034 199.031 58.8332C198.989 58.8433 198.947 58.8535 198.906 58.8637C198.757 58.8985 198.61 58.9282 198.464 58.9543C198.203 59 197.946 59.0326 197.69 59.053C197.669 59.0551 197.649 59.0566 197.628 59.058C196.575 59.1342 195.55 59.0116 194.48 58.8107C193.952 58.7121 193.412 58.5938 192.854 58.4713C192.671 58.4306 192.488 58.3908 192.303 58.3509C192.289 58.348 192.274 58.3443 192.259 58.3414C191.994 58.2841 191.725 58.2276 191.449 58.1717C191.102 58.1014 190.743 58.0332 190.371 57.9686L190.397 58.4858C190.419 58.8836 190.503 59.2757 190.646 59.6484C190.805 60.1068 190.931 60.4695 190.665 61.2245L190.537 61.5901C190.604 61.7716 190.626 61.9658 190.604 62.1575C190.581 62.3491 190.514 62.533 190.407 62.6947L190.381 62.7332L191.449 65.3958L191.518 65.5684H190.971L190.299 65.5691H189.159L187.514 62.3168L187.436 62.1616V62.1536L187.606 55.9037C187.608 55.8486 187.612 55.7927 187.62 55.7376C187.649 55.487 187.73 55.2448 187.856 55.0251C187.982 54.8055 188.151 54.6127 188.353 54.4582C188.547 54.3088 188.769 54.1989 189.007 54.1349C189.244 54.0709 189.492 54.0541 189.736 54.0853L190.299 54.1571L191.449 54.3037L192.259 54.4074L192.275 54.4095L194.665 54.7142L194.836 54.0251L194.868 54.0135L195.874 53.6502L199.353 52.3932L199.362 52.3903L199.59 52.3076L199.618 52.3511C199.626 52.3642 199.634 52.3772 199.641 52.3903C199.867 52.79 200.052 53.2114 200.191 53.648C200.425 54.3612 200.618 55.0869 200.769 55.8217C200.775 55.8536 200.781 55.8827 200.786 55.9088L200.788 55.9167C200.791 55.9291 200.792 55.937 200.793 55.9392C200.873 56.2685 200.817 56.6703 200.67 57.0685Z" fill="#2F2E41"/>
<path d="M200.817 54.7651C200.806 54.7187 200.792 54.6715 200.777 54.6259C200.66 54.2798 200.524 53.9403 200.369 53.609C200.196 53.2318 199.987 52.8278 199.74 52.3905C199.62 52.1787 199.491 51.9584 199.352 51.7297C199.283 51.6151 199.211 51.4983 199.137 51.3794C199.134 51.3739 199.131 51.3686 199.127 51.3634L199.106 51.3286L195.664 51.7827L194.382 51.9517L194.305 52.5812L194.287 52.7372C194.286 52.7372 194.286 52.7372 194.287 52.7379L194.235 53.1629V53.1636L194.167 53.725L194.161 53.7243L192.259 53.4813L190.298 53.2311L189.245 53.0969C189.001 53.0656 188.753 53.0824 188.516 53.1464C188.279 53.2104 188.057 53.3203 187.863 53.4697C187.66 53.6243 187.491 53.8171 187.365 54.0367C187.239 54.2564 187.159 54.4986 187.129 54.7492C187.122 54.7999 187.118 54.8522 187.116 54.9037L186.122 57.2239C185.528 58.6115 185.149 60.0797 184.999 61.5786L184.271 63.8742L184.375 63.8837L185.919 64.0251L186.326 64.0628L187.224 62.7711C187.326 62.6238 187.423 62.4722 187.514 62.317C187.663 62.0635 187.795 61.8009 187.911 61.5308L189.852 56.9759C190.003 57.0013 190.151 57.0254 190.298 57.0484C190.979 57.1572 191.633 57.2459 192.259 57.3146C194.295 57.5387 196.058 57.5561 197.628 57.3661C198.068 57.3131 198.494 57.2435 198.906 57.1572C199.057 57.126 199.206 57.0924 199.352 57.0564C199.387 57.0484 199.421 57.0404 199.455 57.0317C199.759 56.9544 200.038 56.8031 200.268 56.5918C200.497 56.3804 200.669 56.1157 200.768 55.8219C200.886 55.4814 200.903 55.1147 200.817 54.7651Z" fill="#2F2E41"/>
<path d="M184.788 66.4075L183.704 65.8954L183.534 65.8149L183.262 66.4721L181.367 66.8833C181.273 66.9036 181.188 66.9528 181.125 67.0239C181.062 67.095 181.023 67.1842 181.015 67.2784C181.007 67.3726 181.029 67.467 181.079 67.5476C181.129 67.6283 181.204 67.6911 181.293 67.7269L183.145 68.4717L183.733 67.9502L183.589 68.6502L184.287 68.9309L185.051 66.5323L184.788 66.4075Z" fill="#2F2E41"/>
<path d="M191.449 65.3955L191.518 65.5681H191.449V65.3955Z" fill="#2F2E41"/>
<path d="M191.071 65.6053L189.935 65.9931L189.757 66.0538L190.033 66.7091L188.98 68.3159C188.928 68.3953 188.903 68.4891 188.909 68.5835C188.914 68.6779 188.951 68.768 189.012 68.8407C189.073 68.9133 189.157 68.9647 189.25 68.9873C189.343 69.01 189.441 69.0026 189.53 68.9664L191.378 68.2111L191.423 67.4328L191.82 68.0302L192.516 67.7459L191.347 65.5112L191.071 65.6053Z" fill="#2F2E41"/>
<path d="M200.534 55.8161C200.466 55.8159 200.4 55.7997 200.34 55.7687L194.347 52.6819L194.277 52.4025L194.147 51.5182L194.149 51.5099L194.719 48.9197C194.708 48.8975 194.686 48.861 194.662 48.8198C194.407 48.3948 193.633 47.1014 195.111 45.3205L197.706 42.3386L199.933 42.2441L199.958 42.2757C200.554 43.0124 200.955 43.8828 201.128 44.8094C201.3 45.736 201.237 46.6901 200.944 47.5869L200.713 51.7151L200.961 52.5488C201.107 53.0388 201.083 53.5624 200.893 54.0374L200.95 55.3873C200.952 55.4427 200.943 55.4979 200.923 55.5497C200.903 55.6015 200.873 55.6488 200.834 55.6888C200.795 55.7288 200.749 55.7607 200.697 55.7825C200.645 55.8044 200.59 55.8158 200.534 55.816L200.534 55.8161Z" fill="#414141"/>
<path d="M195.334 59.2202C195.436 59.161 195.523 59.0807 195.59 58.9848C195.656 58.8889 195.701 58.7797 195.72 58.6651C195.739 58.5504 195.733 58.4329 195.701 58.321C195.669 58.2091 195.613 58.1054 195.536 58.0173L196.977 55.5747L195.49 55.6573L194.349 57.9642C194.208 58.1013 194.122 58.2848 194.108 58.4801C194.095 58.6753 194.154 58.8687 194.276 59.0235C194.397 59.1783 194.572 59.2838 194.767 59.3201C194.962 59.3563 195.164 59.3208 195.334 59.2202L195.334 59.2202Z" fill="#FFB7B7"/>
<path d="M195.916 57.4245L194.584 56.4023L197.004 51.7807L196.097 45.8953C196.053 45.6044 196.073 45.3073 196.158 45.0252C196.243 44.7431 196.39 44.4828 196.588 44.2628C196.786 44.0429 197.031 43.8687 197.306 43.7526C197.58 43.6364 197.877 43.5812 198.175 43.5909C198.714 43.609 199.224 43.8371 199.592 44.225C199.961 44.613 200.158 45.1292 200.141 45.6604L199.917 52.3617L195.916 57.4245Z" fill="#414141"/>
<path d="M196.277 41.0995V38.9273C196.276 38.1553 196.587 37.4147 197.14 36.8685C197.694 36.3223 198.445 36.0151 199.228 36.0146C200.011 36.0142 200.763 36.3203 201.317 36.8659C201.871 37.4114 202.183 38.1516 202.183 38.9235V38.9273C202.704 39.9963 202.378 40.5046 202.183 41.0995C202.183 41.2031 202.141 41.3024 202.067 41.3757C201.992 41.4489 201.892 41.4902 201.787 41.4903H196.674C196.568 41.4902 196.468 41.449 196.393 41.3758C196.319 41.3025 196.277 41.2032 196.277 41.0995Z" fill="#2F2E41"/>
<path d="M198.262 41.3488C199.483 41.3488 200.472 40.3733 200.472 39.17C200.472 37.9667 199.483 36.9912 198.262 36.9912C197.041 36.9912 196.051 37.9667 196.051 39.17C196.051 40.3733 197.041 41.3488 198.262 41.3488Z" fill="#FFB7B7"/>
<path d="M200.575 39.7414C200.555 39.7383 200.535 39.7342 200.515 39.731C200.17 39.6708 199.826 39.6115 199.482 39.5502L199.45 38.7821L199.034 39.4702C198.084 39.7809 197.195 39.6053 196.359 39.2176C196.083 39.0886 195.815 38.9431 195.557 38.7821C195.627 38.3574 195.793 37.9534 196.042 37.5999C196.291 37.2463 196.617 36.9521 196.996 36.7388C197.028 36.7211 197.059 36.7056 197.09 36.69C197.09 36.69 197.091 36.6899 197.091 36.6899C197.091 36.6898 197.091 36.6898 197.091 36.6897C197.091 36.6896 197.091 36.6894 197.091 36.6893C197.091 36.6892 197.091 36.6891 197.091 36.6889C197.145 36.664 197.2 36.6401 197.255 36.6183C197.684 36.4529 198.152 36.411 198.605 36.4975C199.057 36.584 199.475 36.7952 199.811 37.1067C200.486 37.7418 200.789 38.7905 200.575 39.7414Z" fill="#2F2E41"/>
</g>
<circle cx="56" cy="114" r="5" fill="#FFE031"/>
<circle cx="138" cy="114" r="5" fill="#FFE031"/>
<circle cx="220" cy="114" r="5" fill="#C4C4C4"/>
<circle cx="302" cy="114" r="5" fill="#C4C4C4"/>
<path d="M39.4084 128.783H40.009C39.9602 129.262 39.8283 129.675 39.6135 130.023C39.3986 130.368 39.1057 130.634 38.7346 130.819C38.3635 131.005 37.9159 131.098 37.3918 131.098C36.9882 131.098 36.6219 131.021 36.2932 130.868C35.9676 130.715 35.6877 130.499 35.4533 130.219C35.2189 129.936 35.0383 129.597 34.9113 129.203C34.7844 128.809 34.7209 128.371 34.7209 127.89V127.001C34.7209 126.519 34.7844 126.083 34.9113 125.692C35.0383 125.299 35.2206 124.96 35.4582 124.677C35.6958 124.394 35.9807 124.175 36.3127 124.022C36.6447 123.869 37.0191 123.793 37.4357 123.793C37.9403 123.793 38.3765 123.886 38.7443 124.071C39.1122 124.254 39.4019 124.517 39.6135 124.862C39.8283 125.207 39.9602 125.624 40.009 126.112H39.4084C39.3628 125.728 39.2619 125.403 39.1057 125.136C38.9494 124.869 38.7329 124.665 38.4562 124.525C38.1828 124.382 37.8426 124.311 37.4357 124.311C37.1037 124.311 36.8075 124.374 36.5471 124.501C36.2867 124.628 36.0653 124.81 35.883 125.048C35.7007 125.282 35.5607 125.564 35.4631 125.893C35.3687 126.221 35.3215 126.588 35.3215 126.991V127.89C35.3215 128.28 35.3671 128.64 35.4582 128.969C35.5493 129.298 35.6828 129.582 35.8586 129.823C36.0376 130.064 36.2557 130.251 36.5129 130.385C36.7701 130.518 37.063 130.585 37.3918 130.585C37.8117 130.585 38.1617 130.518 38.4416 130.385C38.7248 130.248 38.9445 130.046 39.1008 129.779C39.257 129.512 39.3596 129.18 39.4084 128.783ZM40.7148 128.441V128.28C40.7148 127.896 40.7702 127.541 40.8809 127.216C40.9915 126.89 41.1494 126.609 41.3545 126.371C41.5628 126.133 41.8118 125.95 42.1016 125.819C42.3913 125.686 42.7135 125.619 43.0684 125.619C43.4264 125.619 43.7503 125.686 44.04 125.819C44.3298 125.95 44.5788 126.133 44.7871 126.371C44.9954 126.609 45.1549 126.89 45.2656 127.216C45.3763 127.541 45.4316 127.896 45.4316 128.28V128.441C45.4316 128.826 45.3763 129.18 45.2656 129.506C45.1549 129.828 44.9954 130.108 44.7871 130.346C44.582 130.583 44.3346 130.769 44.0449 130.902C43.7552 131.033 43.4329 131.098 43.0781 131.098C42.7201 131.098 42.3962 131.033 42.1064 130.902C41.8167 130.769 41.5677 130.583 41.3594 130.346C41.151 130.108 40.9915 129.828 40.8809 129.506C40.7702 129.18 40.7148 128.826 40.7148 128.441ZM41.2959 128.28V128.441C41.2959 128.731 41.335 129.006 41.4131 129.267C41.4912 129.524 41.6051 129.753 41.7549 129.955C41.9046 130.154 42.0902 130.31 42.3115 130.424C42.5329 130.538 42.7884 130.595 43.0781 130.595C43.3646 130.595 43.6169 130.538 43.835 130.424C44.0563 130.31 44.2419 130.154 44.3916 129.955C44.5413 129.753 44.6536 129.524 44.7285 129.267C44.8066 129.006 44.8457 128.731 44.8457 128.441V128.28C44.8457 127.994 44.8066 127.722 44.7285 127.465C44.6536 127.208 44.5397 126.978 44.3867 126.776C44.237 126.575 44.0514 126.415 43.8301 126.298C43.6087 126.181 43.3548 126.122 43.0684 126.122C42.7819 126.122 42.528 126.181 42.3066 126.298C42.0885 126.415 41.903 126.575 41.75 126.776C41.6003 126.978 41.4863 127.208 41.4082 127.465C41.3333 127.722 41.2959 127.994 41.2959 128.28ZM46.9236 126.845V131H46.3426V125.717H46.8992L46.9236 126.845ZM46.7918 128.031L46.533 127.885C46.5525 127.572 46.616 127.279 46.7234 127.006C46.8309 126.732 46.9757 126.492 47.158 126.283C47.3436 126.075 47.56 125.912 47.8074 125.795C48.0581 125.678 48.3348 125.619 48.6375 125.619C48.9012 125.619 49.1372 125.655 49.3455 125.727C49.5538 125.798 49.7312 125.912 49.8777 126.068C50.0242 126.225 50.1349 126.425 50.2098 126.669C50.2879 126.913 50.327 127.211 50.327 127.562V131H49.741V127.558C49.741 127.193 49.6906 126.908 49.5896 126.703C49.4887 126.495 49.3455 126.347 49.16 126.259C48.9744 126.171 48.7547 126.127 48.5008 126.127C48.2208 126.127 47.9751 126.189 47.7635 126.312C47.5551 126.433 47.3794 126.591 47.2361 126.786C47.0962 126.978 46.9887 127.185 46.9139 127.406C46.839 127.624 46.7983 127.833 46.7918 128.031ZM52.4732 131H51.8922V125.16C51.8922 124.779 51.9622 124.459 52.1021 124.198C52.2454 123.935 52.4472 123.736 52.7076 123.603C52.9713 123.466 53.2838 123.397 53.6451 123.397C53.8632 123.397 54.0846 123.422 54.3092 123.471C54.5338 123.52 54.76 123.591 54.9879 123.686L54.8951 124.193C54.7226 124.118 54.5419 124.057 54.3531 124.008C54.1643 123.959 53.9397 123.935 53.6793 123.935C53.2822 123.935 52.9811 124.039 52.776 124.247C52.5742 124.455 52.4732 124.76 52.4732 125.16V131ZM53.7086 125.717V126.195H51.0133V125.717H53.7086ZM55.3053 125.717V131H54.7242V125.717H55.3053ZM57.2025 126.591V131H56.6215V125.717H57.1879L57.2025 126.591ZM59.0727 125.678L59.058 126.215C58.9929 126.205 58.9294 126.197 58.8676 126.19C58.8057 126.184 58.739 126.181 58.6674 126.181C58.4135 126.181 58.1905 126.228 57.9984 126.322C57.8096 126.413 57.6501 126.542 57.5199 126.708C57.3897 126.871 57.2904 127.063 57.2221 127.284C57.1537 127.502 57.1146 127.737 57.1049 127.987L56.89 128.07C56.89 127.725 56.9258 127.405 56.9975 127.108C57.0691 126.812 57.1781 126.553 57.3246 126.332C57.4743 126.107 57.6615 125.933 57.8861 125.81C58.114 125.683 58.3809 125.619 58.6869 125.619C58.7618 125.619 58.835 125.626 58.9066 125.639C58.9815 125.648 59.0368 125.661 59.0727 125.678ZM60.2424 126.811V131H59.6564V125.717H60.218L60.2424 126.811ZM60.135 128.031L59.8518 127.885C59.8713 127.572 59.9299 127.279 60.0275 127.006C60.1284 126.732 60.2684 126.492 60.4475 126.283C60.6265 126.075 60.8413 125.912 61.092 125.795C61.3426 125.678 61.6275 125.619 61.9465 125.619C62.2036 125.619 62.4364 125.655 62.6447 125.727C62.8563 125.795 63.0354 125.904 63.1818 126.054C63.3316 126.2 63.4471 126.392 63.5285 126.63C63.6099 126.868 63.6506 127.152 63.6506 127.484V131H63.0695V127.504C63.0695 127.152 63.0142 126.877 62.9035 126.679C62.7961 126.48 62.6447 126.339 62.4494 126.254C62.2574 126.169 62.0344 126.127 61.7805 126.127C61.481 126.127 61.2271 126.189 61.0187 126.312C60.8137 126.433 60.646 126.591 60.5158 126.786C60.3889 126.978 60.2945 127.185 60.2326 127.406C60.1708 127.624 60.1382 127.833 60.135 128.031ZM63.6457 127.572L63.2551 127.582C63.2714 127.325 63.3299 127.079 63.4309 126.845C63.535 126.61 63.6766 126.402 63.8557 126.22C64.0347 126.034 64.2479 125.888 64.4953 125.78C64.746 125.673 65.0275 125.619 65.34 125.619C65.6135 125.619 65.8576 125.657 66.0725 125.731C66.2873 125.803 66.468 125.919 66.6145 126.078C66.7642 126.234 66.8781 126.435 66.9562 126.679C67.0344 126.923 67.0734 127.216 67.0734 127.558V131H66.4875V127.553C66.4875 127.178 66.4322 126.889 66.3215 126.684C66.2141 126.475 66.0643 126.33 65.8723 126.249C65.6802 126.168 65.4556 126.127 65.1984 126.127C64.9445 126.13 64.7215 126.177 64.5295 126.269C64.3374 126.356 64.1763 126.474 64.0461 126.62C63.9191 126.763 63.8215 126.918 63.7531 127.084C63.688 127.25 63.6522 127.413 63.6457 127.572ZM70.2988 131.098C69.9538 131.098 69.6364 131.034 69.3467 130.907C69.0602 130.78 68.8096 130.601 68.5947 130.37C68.3831 130.139 68.2188 129.866 68.1016 129.55C67.9876 129.231 67.9307 128.882 67.9307 128.505V128.295C67.9307 127.888 67.9909 127.52 68.1113 127.191C68.2318 126.863 68.3978 126.581 68.6094 126.347C68.821 126.112 69.0618 125.933 69.332 125.81C69.6055 125.683 69.8919 125.619 70.1914 125.619C70.5267 125.619 70.8245 125.679 71.085 125.8C71.3454 125.917 71.5635 126.085 71.7393 126.303C71.9183 126.518 72.0534 126.773 72.1445 127.069C72.2357 127.362 72.2812 127.686 72.2812 128.041V128.397H68.2822V127.899H71.7002V127.831C71.6937 127.535 71.6335 127.258 71.5195 127.001C71.4089 126.741 71.2428 126.529 71.0215 126.366C70.8001 126.203 70.5234 126.122 70.1914 126.122C69.944 126.122 69.7161 126.174 69.5078 126.278C69.3027 126.382 69.1253 126.532 68.9756 126.728C68.8291 126.92 68.7152 127.149 68.6338 127.416C68.5557 127.68 68.5166 127.973 68.5166 128.295V128.505C68.5166 128.798 68.5589 129.071 68.6436 129.325C68.7314 129.576 68.8551 129.797 69.0146 129.989C69.1774 130.181 69.3695 130.331 69.5908 130.438C69.8122 130.546 70.0563 130.6 70.3232 130.6C70.6357 130.6 70.9124 130.543 71.1533 130.429C71.3942 130.312 71.6107 130.128 71.8027 129.877L72.1689 130.16C72.055 130.329 71.9118 130.486 71.7393 130.629C71.57 130.772 71.3665 130.886 71.1289 130.971C70.8913 131.055 70.6146 131.098 70.2988 131.098ZM76.5662 129.975V123.5H77.1521V131H76.6053L76.5662 129.975ZM72.8992 128.412V128.31C72.8992 127.899 72.9464 127.53 73.0408 127.201C73.1352 126.869 73.2703 126.586 73.4461 126.352C73.6251 126.114 73.84 125.933 74.0906 125.81C74.3413 125.683 74.6245 125.619 74.9402 125.619C75.2495 125.619 75.5229 125.67 75.7605 125.771C75.9982 125.871 76.2016 126.016 76.3709 126.205C76.5434 126.394 76.6818 126.618 76.7859 126.879C76.8934 127.139 76.9715 127.429 77.0203 127.748V129.052C76.9813 129.351 76.9096 129.626 76.8055 129.877C76.7013 130.124 76.563 130.341 76.3904 130.526C76.2179 130.709 76.0096 130.85 75.7654 130.951C75.5245 131.049 75.2462 131.098 74.9305 131.098C74.618 131.098 74.3364 131.033 74.0857 130.902C73.8351 130.772 73.6219 130.588 73.4461 130.351C73.2703 130.11 73.1352 129.825 73.0408 129.496C72.9464 129.167 72.8992 128.806 72.8992 128.412ZM73.4852 128.31V128.412C73.4852 128.721 73.5161 129.008 73.5779 129.271C73.6398 129.535 73.7342 129.765 73.8611 129.96C73.9881 130.155 74.1492 130.308 74.3445 130.419C74.5398 130.53 74.771 130.585 75.0379 130.585C75.3732 130.585 75.6548 130.521 75.8826 130.395C76.1105 130.264 76.2928 130.093 76.4295 129.882C76.5662 129.667 76.6655 129.433 76.7273 129.179V127.66C76.6883 127.488 76.6313 127.312 76.5564 127.133C76.4816 126.954 76.379 126.789 76.2488 126.64C76.1219 126.487 75.9591 126.365 75.7605 126.273C75.5652 126.179 75.3276 126.132 75.0477 126.132C74.7775 126.132 74.5447 126.187 74.3494 126.298C74.1541 126.409 73.9913 126.563 73.8611 126.762C73.7342 126.957 73.6398 127.187 73.5779 127.45C73.5161 127.714 73.4852 128 73.4852 128.31Z" fill="#414141"/>
<path d="M126.783 127.783H127.383C127.335 128.262 127.203 128.675 126.988 129.023C126.773 129.368 126.48 129.634 126.109 129.819C125.738 130.005 125.29 130.098 124.766 130.098C124.363 130.098 123.996 130.021 123.668 129.868C123.342 129.715 123.062 129.499 122.828 129.219C122.593 128.936 122.413 128.597 122.286 128.203C122.159 127.809 122.095 127.371 122.095 126.89V126.001C122.095 125.519 122.159 125.083 122.286 124.692C122.413 124.299 122.595 123.96 122.833 123.677C123.07 123.394 123.355 123.175 123.687 123.022C124.019 122.869 124.393 122.793 124.81 122.793C125.315 122.793 125.751 122.886 126.119 123.071C126.487 123.254 126.776 123.517 126.988 123.862C127.203 124.207 127.335 124.624 127.383 125.112H126.783C126.737 124.728 126.636 124.403 126.48 124.136C126.324 123.869 126.107 123.665 125.831 123.525C125.557 123.382 125.217 123.311 124.81 123.311C124.478 123.311 124.182 123.374 123.921 123.501C123.661 123.628 123.44 123.81 123.257 124.048C123.075 124.282 122.935 124.564 122.837 124.893C122.743 125.221 122.696 125.588 122.696 125.991V126.89C122.696 127.28 122.741 127.64 122.833 127.969C122.924 128.298 123.057 128.582 123.233 128.823C123.412 129.064 123.63 129.251 123.887 129.385C124.144 129.518 124.437 129.585 124.766 129.585C125.186 129.585 125.536 129.518 125.816 129.385C126.099 129.248 126.319 129.046 126.475 128.779C126.631 128.512 126.734 128.18 126.783 127.783ZM128.089 127.441V127.28C128.089 126.896 128.145 126.541 128.255 126.216C128.366 125.89 128.524 125.609 128.729 125.371C128.937 125.133 129.186 124.95 129.476 124.819C129.766 124.686 130.088 124.619 130.443 124.619C130.801 124.619 131.125 124.686 131.414 124.819C131.704 124.95 131.953 125.133 132.162 125.371C132.37 125.609 132.529 125.89 132.64 126.216C132.751 126.541 132.806 126.896 132.806 127.28V127.441C132.806 127.826 132.751 128.18 132.64 128.506C132.529 128.828 132.37 129.108 132.162 129.346C131.956 129.583 131.709 129.769 131.419 129.902C131.13 130.033 130.807 130.098 130.453 130.098C130.094 130.098 129.771 130.033 129.481 129.902C129.191 129.769 128.942 129.583 128.734 129.346C128.525 129.108 128.366 128.828 128.255 128.506C128.145 128.18 128.089 127.826 128.089 127.441ZM128.67 127.28V127.441C128.67 127.731 128.709 128.006 128.787 128.267C128.866 128.524 128.98 128.753 129.129 128.955C129.279 129.154 129.465 129.31 129.686 129.424C129.907 129.538 130.163 129.595 130.453 129.595C130.739 129.595 130.991 129.538 131.209 129.424C131.431 129.31 131.616 129.154 131.766 128.955C131.916 128.753 132.028 128.524 132.103 128.267C132.181 128.006 132.22 127.731 132.22 127.441V127.28C132.22 126.994 132.181 126.722 132.103 126.465C132.028 126.208 131.914 125.978 131.761 125.776C131.611 125.575 131.426 125.415 131.204 125.298C130.983 125.181 130.729 125.122 130.443 125.122C130.156 125.122 129.902 125.181 129.681 125.298C129.463 125.415 129.277 125.575 129.124 125.776C128.975 125.978 128.861 126.208 128.783 126.465C128.708 126.722 128.67 126.994 128.67 127.28ZM133.395 127.441V127.28C133.395 126.896 133.45 126.541 133.561 126.216C133.671 125.89 133.829 125.609 134.034 125.371C134.243 125.133 134.492 124.95 134.781 124.819C135.071 124.686 135.393 124.619 135.748 124.619C136.106 124.619 136.43 124.686 136.72 124.819C137.01 124.95 137.259 125.133 137.467 125.371C137.675 125.609 137.835 125.89 137.946 126.216C138.056 126.541 138.112 126.896 138.112 127.28V127.441C138.112 127.826 138.056 128.18 137.946 128.506C137.835 128.828 137.675 129.108 137.467 129.346C137.262 129.583 137.015 129.769 136.725 129.902C136.435 130.033 136.113 130.098 135.758 130.098C135.4 130.098 135.076 130.033 134.786 129.902C134.497 129.769 134.248 129.583 134.039 129.346C133.831 129.108 133.671 128.828 133.561 128.506C133.45 128.18 133.395 127.826 133.395 127.441ZM133.976 127.28V127.441C133.976 127.731 134.015 128.006 134.093 128.267C134.171 128.524 134.285 128.753 134.435 128.955C134.585 129.154 134.77 129.31 134.991 129.424C135.213 129.538 135.468 129.595 135.758 129.595C136.044 129.595 136.297 129.538 136.515 129.424C136.736 129.31 136.922 129.154 137.071 128.955C137.221 128.753 137.334 128.524 137.408 128.267C137.487 128.006 137.526 127.731 137.526 127.441V127.28C137.526 126.994 137.487 126.722 137.408 126.465C137.334 126.208 137.22 125.978 137.067 125.776C136.917 125.575 136.731 125.415 136.51 125.298C136.289 125.181 136.035 125.122 135.748 125.122C135.462 125.122 135.208 125.181 134.987 125.298C134.768 125.415 134.583 125.575 134.43 125.776C134.28 125.978 134.166 126.208 134.088 126.465C134.013 126.722 133.976 126.994 133.976 127.28ZM139.604 122.5V130H139.022V122.5H139.604ZM142.919 124.717L140.448 127.168L139.398 128.184L139.311 127.612L140.155 126.699L142.182 124.717H142.919ZM142.411 130L140.204 127.256L140.526 126.753L143.114 130H142.411ZM144.274 124.717V130H143.693V124.717H144.274ZM143.591 123.188C143.591 123.078 143.625 122.985 143.693 122.91C143.765 122.832 143.862 122.793 143.986 122.793C144.11 122.793 144.207 122.832 144.279 122.91C144.354 122.985 144.391 123.078 144.391 123.188C144.391 123.296 144.354 123.389 144.279 123.467C144.207 123.542 144.11 123.579 143.986 123.579C143.862 123.579 143.765 123.542 143.693 123.467C143.625 123.389 143.591 123.296 143.591 123.188ZM146.152 125.845V130H145.571V124.717H146.128L146.152 125.845ZM146.02 127.031L145.761 126.885C145.781 126.572 145.844 126.279 145.952 126.006C146.059 125.732 146.204 125.492 146.386 125.283C146.572 125.075 146.788 124.912 147.036 124.795C147.286 124.678 147.563 124.619 147.866 124.619C148.129 124.619 148.365 124.655 148.574 124.727C148.782 124.798 148.96 124.912 149.106 125.068C149.253 125.225 149.363 125.425 149.438 125.669C149.516 125.913 149.555 126.211 149.555 126.562V130H148.969V126.558C148.969 126.193 148.919 125.908 148.818 125.703C148.717 125.495 148.574 125.347 148.388 125.259C148.203 125.171 147.983 125.127 147.729 125.127C147.449 125.127 147.203 125.189 146.992 125.312C146.783 125.433 146.608 125.591 146.464 125.786C146.324 125.978 146.217 126.185 146.142 126.406C146.067 126.624 146.027 126.833 146.02 127.031ZM154.246 124.717H154.788V129.907C154.788 130.366 154.7 130.76 154.524 131.089C154.351 131.418 154.106 131.67 153.787 131.846C153.471 132.021 153.098 132.109 152.668 132.109C152.45 132.109 152.226 132.075 151.995 132.007C151.767 131.942 151.55 131.841 151.345 131.704C151.143 131.571 150.971 131.405 150.828 131.206L151.155 130.85C151.37 131.11 151.599 131.3 151.843 131.421C152.087 131.545 152.351 131.606 152.634 131.606C152.969 131.606 153.253 131.54 153.484 131.406C153.718 131.273 153.896 131.081 154.016 130.83C154.14 130.579 154.202 130.278 154.202 129.927V125.879L154.246 124.717ZM150.535 127.412V127.31C150.535 126.899 150.58 126.53 150.671 126.201C150.766 125.869 150.901 125.586 151.077 125.352C151.252 125.114 151.466 124.933 151.716 124.81C151.97 124.683 152.257 124.619 152.576 124.619C152.882 124.619 153.153 124.67 153.391 124.771C153.629 124.871 153.834 125.016 154.006 125.205C154.179 125.394 154.317 125.618 154.421 125.879C154.529 126.139 154.607 126.429 154.656 126.748V128.052C154.617 128.351 154.545 128.626 154.441 128.877C154.337 129.124 154.198 129.341 154.026 129.526C153.853 129.709 153.645 129.85 153.401 129.951C153.16 130.049 152.882 130.098 152.566 130.098C152.25 130.098 151.967 130.033 151.716 129.902C151.466 129.772 151.252 129.588 151.077 129.351C150.901 129.11 150.766 128.825 150.671 128.496C150.58 128.167 150.535 127.806 150.535 127.412ZM151.121 127.31V127.412C151.121 127.721 151.151 128.008 151.213 128.271C151.275 128.535 151.37 128.765 151.496 128.96C151.623 129.155 151.785 129.308 151.98 129.419C152.175 129.53 152.405 129.585 152.668 129.585C153.004 129.585 153.285 129.521 153.513 129.395C153.741 129.264 153.922 129.093 154.055 128.882C154.189 128.667 154.286 128.433 154.348 128.179V126.66C154.312 126.488 154.257 126.312 154.182 126.133C154.11 125.954 154.01 125.789 153.879 125.64C153.752 125.487 153.59 125.365 153.391 125.273C153.196 125.179 152.958 125.132 152.678 125.132C152.411 125.132 152.178 125.187 151.98 125.298C151.785 125.409 151.623 125.563 151.496 125.762C151.37 125.957 151.275 126.187 151.213 126.45C151.151 126.714 151.121 127 151.121 127.31Z" fill="#FFE031"/>
<path d="M202.191 126.064V126.826C202.191 127.324 202.126 127.775 201.996 128.179C201.869 128.579 201.683 128.923 201.439 129.209C201.198 129.495 200.908 129.715 200.57 129.868C200.231 130.021 199.85 130.098 199.427 130.098C199.014 130.098 198.636 130.021 198.294 129.868C197.956 129.715 197.664 129.495 197.42 129.209C197.176 128.923 196.987 128.579 196.854 128.179C196.72 127.775 196.654 127.324 196.654 126.826V126.064C196.654 125.566 196.719 125.117 196.849 124.717C196.982 124.313 197.171 123.968 197.415 123.682C197.66 123.395 197.951 123.175 198.289 123.022C198.628 122.869 199.004 122.793 199.417 122.793C199.841 122.793 200.221 122.869 200.56 123.022C200.899 123.175 201.19 123.395 201.434 123.682C201.678 123.968 201.865 124.313 201.996 124.717C202.126 125.117 202.191 125.566 202.191 126.064ZM201.595 126.826V126.055C201.595 125.635 201.546 125.257 201.449 124.922C201.354 124.587 201.213 124.3 201.024 124.062C200.838 123.825 200.61 123.643 200.34 123.516C200.07 123.389 199.762 123.325 199.417 123.325C199.082 123.325 198.781 123.389 198.514 123.516C198.247 123.643 198.019 123.825 197.83 124.062C197.645 124.3 197.502 124.587 197.401 124.922C197.303 125.257 197.254 125.635 197.254 126.055V126.826C197.254 127.249 197.303 127.63 197.401 127.969C197.502 128.304 197.647 128.592 197.835 128.833C198.024 129.071 198.252 129.253 198.519 129.38C198.789 129.507 199.092 129.57 199.427 129.57C199.775 129.57 200.083 129.507 200.35 129.38C200.617 129.253 200.843 129.071 201.029 128.833C201.214 128.592 201.354 128.304 201.449 127.969C201.546 127.63 201.595 127.249 201.595 126.826ZM203.854 125.845V130H203.273V124.717H203.829L203.854 125.845ZM203.722 127.031L203.463 126.885C203.483 126.572 203.546 126.279 203.654 126.006C203.761 125.732 203.906 125.492 204.088 125.283C204.274 125.075 204.49 124.912 204.738 124.795C204.988 124.678 205.265 124.619 205.568 124.619C205.831 124.619 206.067 124.655 206.276 124.727C206.484 124.798 206.661 124.912 206.808 125.068C206.954 125.225 207.065 125.425 207.14 125.669C207.218 125.913 207.257 126.211 207.257 126.562V130H206.671V126.558C206.671 126.193 206.621 125.908 206.52 125.703C206.419 125.495 206.276 125.347 206.09 125.259C205.904 125.171 205.685 125.127 205.431 125.127C205.151 125.127 204.905 125.189 204.694 125.312C204.485 125.433 204.309 125.591 204.166 125.786C204.026 125.978 203.919 126.185 203.844 126.406C203.769 126.624 203.728 126.833 203.722 127.031ZM212.609 124.717V125.195H209.963V124.717H212.609ZM210.934 123.359H211.515V128.716C211.515 128.96 211.548 129.144 211.613 129.268C211.678 129.391 211.763 129.474 211.867 129.517C211.971 129.559 212.083 129.58 212.204 129.58C212.292 129.58 212.376 129.575 212.458 129.565C212.539 129.552 212.612 129.539 212.678 129.526L212.702 130.02C212.63 130.042 212.538 130.06 212.424 130.073C212.31 130.09 212.196 130.098 212.082 130.098C211.857 130.098 211.659 130.057 211.486 129.976C211.314 129.891 211.179 129.748 211.081 129.546C210.983 129.341 210.934 129.062 210.934 128.711V123.359ZM214.116 122.5V130H213.535V122.5H214.116ZM213.984 127.031L213.725 126.885C213.745 126.572 213.808 126.279 213.916 126.006C214.023 125.732 214.168 125.492 214.35 125.283C214.536 125.075 214.752 124.912 215 124.795C215.25 124.678 215.527 124.619 215.83 124.619C216.093 124.619 216.329 124.655 216.538 124.727C216.746 124.798 216.923 124.912 217.07 125.068C217.216 125.225 217.327 125.425 217.402 125.669C217.48 125.913 217.519 126.211 217.519 126.562V130H216.933V126.558C216.933 126.193 216.883 125.908 216.782 125.703C216.681 125.495 216.538 125.347 216.352 125.259C216.167 125.171 215.947 125.127 215.693 125.127C215.413 125.127 215.167 125.189 214.956 125.312C214.747 125.433 214.572 125.591 214.428 125.786C214.288 125.978 214.181 126.185 214.106 126.406C214.031 126.624 213.99 126.833 213.984 127.031ZM220.764 130.098C220.419 130.098 220.102 130.034 219.812 129.907C219.525 129.78 219.275 129.601 219.06 129.37C218.848 129.139 218.684 128.866 218.567 128.55C218.453 128.231 218.396 127.882 218.396 127.505V127.295C218.396 126.888 218.456 126.52 218.577 126.191C218.697 125.863 218.863 125.581 219.075 125.347C219.286 125.112 219.527 124.933 219.797 124.81C220.071 124.683 220.357 124.619 220.657 124.619C220.992 124.619 221.29 124.679 221.55 124.8C221.811 124.917 222.029 125.085 222.204 125.303C222.384 125.518 222.519 125.773 222.61 126.069C222.701 126.362 222.746 126.686 222.746 127.041V127.397H218.747V126.899H222.165V126.831C222.159 126.535 222.099 126.258 221.985 126.001C221.874 125.741 221.708 125.529 221.487 125.366C221.265 125.203 220.989 125.122 220.657 125.122C220.409 125.122 220.181 125.174 219.973 125.278C219.768 125.382 219.591 125.532 219.441 125.728C219.294 125.92 219.18 126.149 219.099 126.416C219.021 126.68 218.982 126.973 218.982 127.295V127.505C218.982 127.798 219.024 128.071 219.109 128.325C219.197 128.576 219.32 128.797 219.48 128.989C219.643 129.181 219.835 129.331 220.056 129.438C220.277 129.546 220.522 129.6 220.788 129.6C221.101 129.6 221.378 129.543 221.619 129.429C221.859 129.312 222.076 129.128 222.268 128.877L222.634 129.16C222.52 129.329 222.377 129.486 222.204 129.629C222.035 129.772 221.832 129.886 221.594 129.971C221.357 130.055 221.08 130.098 220.764 130.098ZM227.205 128.765L228.479 124.717H228.89L228.646 125.806L227.312 130H226.902L227.205 128.765ZM225.882 124.717L227 128.789L227.239 130H226.814L225.281 124.717H225.882ZM230.477 128.774L231.565 124.717H232.166L230.633 130H230.213L230.477 128.774ZM228.973 124.717L230.228 128.73L230.545 130H230.135L228.772 125.801L228.543 124.717H228.973ZM236.202 129.053V126.328C236.202 126.077 236.15 125.861 236.046 125.679C235.942 125.496 235.789 125.356 235.587 125.259C235.385 125.161 235.136 125.112 234.84 125.112C234.566 125.112 234.322 125.161 234.107 125.259C233.896 125.353 233.728 125.482 233.604 125.645C233.484 125.804 233.424 125.981 233.424 126.177L232.838 126.172C232.838 125.973 232.887 125.781 232.984 125.596C233.082 125.41 233.22 125.244 233.399 125.098C233.578 124.951 233.791 124.836 234.039 124.751C234.29 124.663 234.565 124.619 234.864 124.619C235.242 124.619 235.574 124.683 235.86 124.81C236.15 124.937 236.376 125.127 236.539 125.381C236.702 125.635 236.783 125.954 236.783 126.338V128.892C236.783 129.074 236.796 129.263 236.822 129.458C236.851 129.653 236.892 129.814 236.944 129.941V130H236.324C236.285 129.883 236.254 129.736 236.231 129.561C236.212 129.382 236.202 129.212 236.202 129.053ZM236.339 126.924L236.348 127.373H235.201C234.901 127.373 234.633 127.401 234.395 127.456C234.161 127.508 233.962 127.586 233.8 127.69C233.637 127.791 233.512 127.913 233.424 128.057C233.339 128.2 233.297 128.363 233.297 128.545C233.297 128.734 233.344 128.906 233.438 129.062C233.536 129.219 233.673 129.344 233.848 129.438C234.027 129.53 234.239 129.575 234.483 129.575C234.809 129.575 235.095 129.515 235.343 129.395C235.593 129.274 235.8 129.116 235.963 128.921C236.125 128.726 236.235 128.512 236.29 128.281L236.544 128.618C236.501 128.781 236.423 128.949 236.309 129.121C236.199 129.29 236.054 129.45 235.875 129.6C235.696 129.746 235.484 129.867 235.24 129.961C234.999 130.052 234.726 130.098 234.42 130.098C234.075 130.098 233.774 130.033 233.516 129.902C233.262 129.772 233.064 129.595 232.921 129.37C232.781 129.142 232.711 128.885 232.711 128.599C232.711 128.338 232.766 128.105 232.877 127.9C232.987 127.692 233.147 127.516 233.355 127.373C233.567 127.227 233.821 127.116 234.117 127.041C234.416 126.963 234.752 126.924 235.123 126.924H236.339ZM239.54 129.473L241.185 124.717H241.815L239.579 130.85C239.533 130.97 239.475 131.104 239.403 131.25C239.335 131.396 239.243 131.536 239.129 131.67C239.019 131.807 238.879 131.917 238.71 132.002C238.544 132.09 238.34 132.134 238.099 132.134C238.037 132.134 237.958 132.126 237.86 132.109C237.766 132.096 237.697 132.083 237.655 132.07L237.65 131.577C237.686 131.587 237.738 131.595 237.806 131.602C237.875 131.608 237.922 131.611 237.948 131.611C238.159 131.611 238.337 131.576 238.48 131.504C238.627 131.432 238.749 131.325 238.846 131.182C238.944 131.042 239.03 130.866 239.105 130.654L239.54 129.473ZM238.002 124.717L239.686 129.253L239.842 129.863L239.418 130.103L237.367 124.717H238.002Z" fill="#414141"/>
<path d="M285.973 130H284.362L284.372 129.487H285.973C286.485 129.487 286.924 129.373 287.292 129.146C287.663 128.914 287.949 128.595 288.151 128.188C288.353 127.782 288.454 127.31 288.454 126.772V126.108C288.454 125.698 288.395 125.327 288.278 124.995C288.164 124.663 288 124.38 287.785 124.146C287.57 123.908 287.313 123.726 287.013 123.599C286.717 123.472 286.385 123.408 286.017 123.408H284.333V122.891H286.017C286.46 122.891 286.865 122.967 287.233 123.12C287.604 123.27 287.925 123.488 288.195 123.774C288.469 124.058 288.679 124.398 288.825 124.795C288.975 125.192 289.05 125.635 289.05 126.123V126.772C289.05 127.261 288.975 127.703 288.825 128.101C288.679 128.498 288.469 128.838 288.195 129.121C287.922 129.404 287.598 129.622 287.223 129.775C286.849 129.925 286.432 130 285.973 130ZM284.631 122.891V130H284.03V122.891H284.631ZM292.187 130.098C291.842 130.098 291.525 130.034 291.235 129.907C290.949 129.78 290.698 129.601 290.483 129.37C290.271 129.139 290.107 128.866 289.99 128.55C289.876 128.231 289.819 127.882 289.819 127.505V127.295C289.819 126.888 289.879 126.52 290 126.191C290.12 125.863 290.286 125.581 290.498 125.347C290.709 125.112 290.95 124.933 291.22 124.81C291.494 124.683 291.78 124.619 292.08 124.619C292.415 124.619 292.713 124.679 292.973 124.8C293.234 124.917 293.452 125.085 293.628 125.303C293.807 125.518 293.942 125.773 294.033 126.069C294.124 126.362 294.17 126.686 294.17 127.041V127.397H290.171V126.899H293.588V126.831C293.582 126.535 293.522 126.258 293.408 126.001C293.297 125.741 293.131 125.529 292.91 125.366C292.688 125.203 292.412 125.122 292.08 125.122C291.832 125.122 291.604 125.174 291.396 125.278C291.191 125.382 291.014 125.532 290.864 125.728C290.717 125.92 290.603 126.149 290.522 126.416C290.444 126.68 290.405 126.973 290.405 127.295V127.505C290.405 127.798 290.447 128.071 290.532 128.325C290.62 128.576 290.743 128.797 290.903 128.989C291.066 129.181 291.258 129.331 291.479 129.438C291.7 129.546 291.945 129.6 292.212 129.6C292.524 129.6 292.801 129.543 293.042 129.429C293.282 129.312 293.499 129.128 293.691 128.877L294.057 129.16C293.943 129.329 293.8 129.486 293.628 129.629C293.458 129.772 293.255 129.886 293.017 129.971C292.78 130.055 292.503 130.098 292.187 130.098ZM295.671 122.5V130H295.09V122.5H295.671ZM297.617 124.717V130H297.036V124.717H297.617ZM296.934 123.188C296.934 123.078 296.968 122.985 297.036 122.91C297.108 122.832 297.206 122.793 297.329 122.793C297.453 122.793 297.551 122.832 297.622 122.91C297.697 122.985 297.735 123.078 297.735 123.188C297.735 123.296 297.697 123.389 297.622 123.467C297.551 123.542 297.453 123.579 297.329 123.579C297.206 123.579 297.108 123.542 297.036 123.467C296.968 123.389 296.934 123.296 296.934 123.188ZM300.472 129.438L302.166 124.717H302.767L300.789 130H300.364L300.472 129.438ZM298.938 124.717L300.652 129.453L300.745 130H300.315L298.333 124.717H298.938ZM305.401 130.098C305.056 130.098 304.739 130.034 304.449 129.907C304.163 129.78 303.912 129.601 303.697 129.37C303.485 129.139 303.321 128.866 303.204 128.55C303.09 128.231 303.033 127.882 303.033 127.505V127.295C303.033 126.888 303.093 126.52 303.214 126.191C303.334 125.863 303.5 125.581 303.712 125.347C303.923 125.112 304.164 124.933 304.434 124.81C304.708 124.683 304.994 124.619 305.294 124.619C305.629 124.619 305.927 124.679 306.187 124.8C306.448 124.917 306.666 125.085 306.842 125.303C307.021 125.518 307.156 125.773 307.247 126.069C307.338 126.362 307.384 126.686 307.384 127.041V127.397H303.385V126.899H306.803V126.831C306.796 126.535 306.736 126.258 306.622 126.001C306.511 125.741 306.345 125.529 306.124 125.366C305.902 125.203 305.626 125.122 305.294 125.122C305.046 125.122 304.818 125.174 304.61 125.278C304.405 125.382 304.228 125.532 304.078 125.728C303.931 125.92 303.818 126.149 303.736 126.416C303.658 126.68 303.619 126.973 303.619 127.295V127.505C303.619 127.798 303.661 128.071 303.746 128.325C303.834 128.576 303.957 128.797 304.117 128.989C304.28 129.181 304.472 129.331 304.693 129.438C304.915 129.546 305.159 129.6 305.426 129.6C305.738 129.6 306.015 129.543 306.256 129.429C306.497 129.312 306.713 129.128 306.905 128.877L307.271 129.16C307.157 129.329 307.014 129.486 306.842 129.629C306.672 129.772 306.469 129.886 306.231 129.971C305.994 130.055 305.717 130.098 305.401 130.098ZM308.817 125.591V130H308.236V124.717H308.802L308.817 125.591ZM310.687 124.678L310.672 125.215C310.607 125.205 310.544 125.197 310.482 125.19C310.42 125.184 310.353 125.181 310.282 125.181C310.028 125.181 309.805 125.228 309.613 125.322C309.424 125.413 309.265 125.542 309.134 125.708C309.004 125.871 308.905 126.063 308.837 126.284C308.768 126.502 308.729 126.737 308.719 126.987L308.504 127.07C308.504 126.725 308.54 126.405 308.612 126.108C308.684 125.812 308.793 125.553 308.939 125.332C309.089 125.107 309.276 124.933 309.501 124.81C309.728 124.683 309.995 124.619 310.301 124.619C310.376 124.619 310.449 124.626 310.521 124.639C310.596 124.648 310.651 124.661 310.687 124.678ZM313.248 130.098C312.903 130.098 312.586 130.034 312.296 129.907C312.01 129.78 311.759 129.601 311.544 129.37C311.333 129.139 311.168 128.866 311.051 128.55C310.937 128.231 310.88 127.882 310.88 127.505V127.295C310.88 126.888 310.94 126.52 311.061 126.191C311.181 125.863 311.347 125.581 311.559 125.347C311.771 125.112 312.011 124.933 312.282 124.81C312.555 124.683 312.842 124.619 313.141 124.619C313.476 124.619 313.774 124.679 314.035 124.8C314.295 124.917 314.513 125.085 314.689 125.303C314.868 125.518 315.003 125.773 315.094 126.069C315.185 126.362 315.231 126.686 315.231 127.041V127.397H311.232V126.899H314.65V126.831C314.643 126.535 314.583 126.258 314.469 126.001C314.358 125.741 314.192 125.529 313.971 125.366C313.75 125.203 313.473 125.122 313.141 125.122C312.894 125.122 312.666 125.174 312.457 125.278C312.252 125.382 312.075 125.532 311.925 125.728C311.779 125.92 311.665 126.149 311.583 126.416C311.505 126.68 311.466 126.973 311.466 127.295V127.505C311.466 127.798 311.509 128.071 311.593 128.325C311.681 128.576 311.805 128.797 311.964 128.989C312.127 129.181 312.319 129.331 312.54 129.438C312.762 129.546 313.006 129.6 313.273 129.6C313.585 129.6 313.862 129.543 314.103 129.429C314.344 129.312 314.56 129.128 314.752 128.877L315.119 129.16C315.005 129.329 314.861 129.486 314.689 129.629C314.52 129.772 314.316 129.886 314.079 129.971C313.841 130.055 313.564 130.098 313.248 130.098ZM319.516 128.975V122.5H320.102V130H319.555L319.516 128.975ZM315.849 127.412V127.31C315.849 126.899 315.896 126.53 315.99 126.201C316.085 125.869 316.22 125.586 316.396 125.352C316.575 125.114 316.79 124.933 317.04 124.81C317.291 124.683 317.574 124.619 317.89 124.619C318.199 124.619 318.473 124.67 318.71 124.771C318.948 124.871 319.151 125.016 319.321 125.205C319.493 125.394 319.631 125.618 319.736 125.879C319.843 126.139 319.921 126.429 319.97 126.748V128.052C319.931 128.351 319.859 128.626 319.755 128.877C319.651 129.124 319.513 129.341 319.34 129.526C319.168 129.709 318.959 129.85 318.715 129.951C318.474 130.049 318.196 130.098 317.88 130.098C317.568 130.098 317.286 130.033 317.035 129.902C316.785 129.772 316.571 129.588 316.396 129.351C316.22 129.11 316.085 128.825 315.99 128.496C315.896 128.167 315.849 127.806 315.849 127.412ZM316.435 127.31V127.412C316.435 127.721 316.466 128.008 316.528 128.271C316.589 128.535 316.684 128.765 316.811 128.96C316.938 129.155 317.099 129.308 317.294 129.419C317.489 129.53 317.721 129.585 317.987 129.585C318.323 129.585 318.604 129.521 318.832 129.395C319.06 129.264 319.242 129.093 319.379 128.882C319.516 128.667 319.615 128.433 319.677 128.179V126.66C319.638 126.488 319.581 126.312 319.506 126.133C319.431 125.954 319.329 125.789 319.198 125.64C319.071 125.487 318.909 125.365 318.71 125.273C318.515 125.179 318.277 125.132 317.997 125.132C317.727 125.132 317.494 125.187 317.299 125.298C317.104 125.409 316.941 125.563 316.811 125.762C316.684 125.957 316.589 126.187 316.528 126.45C316.466 126.714 316.435 127 316.435 127.31Z" fill="#414141"/>
<path d="M53.5 114.5L55 116L58.5 112.5" stroke="url(#paint1_linear_460_1056)" stroke-linecap="round" stroke-linejoin="round"/>
<defs>
<linearGradient id="paint0_linear_460_1056" x1="23" y1="23" x2="300.5" y2="97" gradientUnits="userSpaceOnUse">
<stop stop-color="#FFE031"/>
<stop offset="1" stop-color="#FFEE8D"/>
</linearGradient>
<linearGradient id="paint1_linear_460_1056" x1="56" y1="112.5" x2="56" y2="116" gradientUnits="userSpaceOnUse">
<stop stop-color="#FFFEFA"/>
<stop stop-color="#FFE031"/>
<stop offset="0.0001" stop-color="#FFFEFA"/>
<stop offset="1" stop-color="#FCFCFC"/>
</linearGradient>
<clipPath id="clip0_460_1056">
<rect width="64" height="59" fill="white" transform="translate(148 10)"/>
</clipPath>
</defs>
</svg>
